<?xml version="1.0" encoding="utf-8"?>
<!-- Generator: Adobe Illustrator 24.0.1, SVG Export Plug-In . SVG Version: 6.00 Build 0)  -->
<svg version="1.1" id="Layer_1" xmlns="http://www.w3.org/2000/svg" xmlns:xlink="http://www.w3.org/1999/xlink" x="0px" y="0px"
	 viewBox="0 0 347.8 78.5" style="enable-background:new 0 0 347.8 78.5;" xml:space="preserve">
<style type="text/css">
	.st0{fill:#FFFFFF;}
	.st1{fill:#FFA200;}
</style>
<g>
	<g>
		<g>
			<path class="st0" d="M111.2,65.2c-2.9,0-5.9-0.1-9-0.4c-3.1-0.2-5.9-0.6-8.3-1.2l11.7-49c2.8-0.5,5.7-0.9,8.7-1.1
				c3-0.2,5.8-0.3,8.4-0.3c2.9,0,5.5,0.3,7.6,0.9c2.1,0.6,3.9,1.4,5.2,2.5c1.3,1,2.3,2.2,3,3.6s1,2.9,1,4.4c0,1.1-0.1,2.2-0.3,3.4
				c-0.2,1.2-0.7,2.3-1.3,3.5c-0.7,1.1-1.6,2.2-2.7,3.3c-1.1,1-2.6,2-4.5,2.8c2.2,1,3.8,2.3,4.8,4s1.5,3.5,1.5,5.6
				c0,2.3-0.5,4.6-1.4,6.8s-2.4,4.1-4.5,5.8c-2,1.7-4.7,3-8,4C119.9,64.7,115.9,65.2,111.2,65.2z M110.2,42.4L107,55.6
				c0.8,0.1,1.8,0.3,3,0.3c1.2,0.1,2.3,0.1,3.3,0.1c1.5,0,2.9-0.1,4.4-0.3c1.4-0.2,2.7-0.6,3.9-1.2c1.1-0.6,2.1-1.4,2.8-2.4
				c0.7-1,1.1-2.3,1.1-4c0-0.7-0.1-1.4-0.4-2c-0.3-0.7-0.7-1.3-1.3-1.8c-0.6-0.5-1.4-1-2.3-1.3c-1-0.3-2.1-0.5-3.4-0.5L110.2,42.4
				L110.2,42.4z M112.3,33.9h7.2c2.9,0,5.1-0.6,6.5-1.9c1.4-1.3,2.2-2.8,2.2-4.5c0-0.9-0.2-1.7-0.6-2.4c-0.4-0.7-1-1.2-1.6-1.6
				c-0.7-0.4-1.5-0.7-2.3-0.8c-0.9-0.2-1.8-0.3-2.7-0.3c-1,0-2.1,0-3.3,0.1s-2,0.2-2.6,0.3L112.3,33.9z"/>
		</g>
		<g>
			<path class="st0" d="M151,64.6h-10.8l9.1-38.5h10.9L151,64.6z M156.3,21.4c-1.5,0-2.9-0.5-4.1-1.4c-1.2-0.9-1.8-2.3-1.8-4.1
				c0-1,0.2-2,0.6-2.9c0.4-0.9,1-1.7,1.6-2.3c0.7-0.7,1.5-1.2,2.4-1.6c0.9-0.4,1.9-0.6,2.9-0.6c1.5,0,2.9,0.5,4.1,1.4
				c1.2,0.9,1.8,2.3,1.8,4.1c0,1-0.2,2-0.6,2.9c-0.4,0.9-1,1.7-1.6,2.3c-0.7,0.7-1.5,1.2-2.4,1.6C158.3,21.2,157.3,21.4,156.3,21.4z
				"/>
		</g>
		<g>
			<path class="st0" d="M169.9,16.5l11.3-1.8L178.4,26h12.1l-2.2,8.9h-12.1L173,48.4c-0.3,1.1-0.5,2.2-0.5,3.1c-0.1,1,0,1.8,0.4,2.5
				c0.3,0.7,0.9,1.3,1.6,1.6c0.8,0.4,1.9,0.6,3.2,0.6c1.2,0,2.3-0.1,3.4-0.3c1.1-0.2,2.2-0.5,3.3-0.9l0.8,8.3c-1.5,0.5-3,1-4.8,1.4
				c-1.7,0.4-3.7,0.6-6.1,0.6c-3.4,0-6-0.5-7.8-1.5c-1.9-1-3.2-2.4-4-4.1c-0.8-1.7-1.1-3.7-1-6c0.1-2.2,0.4-4.6,1-7.1L169.9,16.5z"
				/>
		</g>
		<g>
			<path class="st1" d="M206.1,65.2c-2.9,0-5.9-0.1-9-0.4c-3.1-0.2-5.9-0.6-8.3-1.2l11.7-49c2.8-0.5,5.7-0.9,8.7-1.1
				c3-0.2,5.8-0.3,8.4-0.3c2.9,0,5.5,0.3,7.6,0.9c2.1,0.6,3.9,1.4,5.2,2.5c1.3,1,2.3,2.2,3,3.6s1,2.9,1,4.4c0,1.1-0.1,2.2-0.3,3.4
				c-0.2,1.2-0.7,2.3-1.3,3.5c-0.7,1.1-1.6,2.2-2.7,3.3c-1.1,1-2.6,2-4.5,2.8c2.2,1,3.8,2.3,4.8,4s1.5,3.5,1.5,5.6
				c0,2.3-0.5,4.6-1.4,6.8s-2.4,4.1-4.5,5.8c-2,1.7-4.7,3-8,4C214.8,64.7,210.8,65.2,206.1,65.2z M205.1,42.4L202,55.6
				c0.8,0.1,1.8,0.3,3,0.3c1.2,0.1,2.3,0.1,3.3,0.1c1.5,0,2.9-0.1,4.4-0.3c1.4-0.2,2.7-0.6,3.9-1.2c1.1-0.6,2.1-1.4,2.8-2.4
				s1.1-2.3,1.1-4c0-0.7-0.1-1.4-0.4-2c-0.3-0.7-0.7-1.3-1.3-1.8s-1.4-1-2.3-1.3c-1-0.3-2.1-0.5-3.4-0.5L205.1,42.4L205.1,42.4z
				 M207.2,33.9h7.2c2.9,0,5.1-0.6,6.5-1.9c1.4-1.3,2.2-2.8,2.2-4.5c0-0.9-0.2-1.7-0.6-2.4c-0.4-0.7-1-1.2-1.6-1.6
				c-0.7-0.4-1.5-0.7-2.3-0.8c-0.9-0.2-1.8-0.3-2.7-0.3c-1,0-2.1,0-3.3,0.1s-2,0.2-2.6,0.3L207.2,33.9z"/>
		</g>
		<g>
			<path class="st1" d="M271.1,48c-0.7,2.8-0.9,5.6-0.6,8.4c0.3,2.8,0.9,5.3,1.7,7.5l-9.7,1.4c-0.3-0.6-0.6-1.1-0.8-1.7
				c-0.2-0.5-0.5-1.1-0.7-1.8c-1.4,1.1-2.9,2-4.5,2.8c-1.7,0.7-3.5,1.1-5.6,1.1c-2.4,0-4.5-0.4-6.3-1.3c-1.7-0.9-3.1-2-4.2-3.4
				c-1.1-1.4-1.9-3.1-2.4-5s-0.7-4-0.7-6.2c0-3.4,0.6-6.5,1.8-9.5s2.9-5.6,5-7.8s4.6-4,7.5-5.2c2.9-1.3,6-1.9,9.4-1.9
				c0.4,0,1.2,0,2.3,0.1c1.1,0,2.4,0.2,3.8,0.3c1.4,0.2,2.9,0.5,4.5,0.8c1.6,0.4,3,0.9,4.5,1.6L271.1,48z M263.5,34.5
				c-0.6-0.1-1.2-0.2-1.7-0.2s-1.1-0.1-1.9-0.1c-1.7,0-3.2,0.4-4.6,1.2s-2.7,1.9-3.8,3.3c-1.1,1.3-1.9,2.9-2.5,4.6
				c-0.6,1.8-0.9,3.6-0.9,5.5c0,2.3,0.4,4.2,1.2,5.6c0.8,1.4,2.2,2,4.3,2c1.1,0,2.1-0.2,3-0.7c0.9-0.4,1.9-1.2,2.9-2.2
				c0.1-1.2,0.3-2.5,0.5-3.8s0.5-2.6,0.7-3.7L263.5,34.5z"/>
		</g>
		<g>
			<path class="st1" d="M289.1,56.8c2.5,0,4.2-0.4,5.1-1.1c0.9-0.7,1.4-1.5,1.4-2.3c0-0.5-0.1-1-0.3-1.4c-0.2-0.4-0.5-0.8-0.8-1.1
				c-0.4-0.3-0.9-0.7-1.6-1.1c-0.7-0.4-1.6-0.8-2.6-1.3c-1.2-0.5-2.4-1.1-3.4-1.7c-1.1-0.6-2-1.3-2.8-2.2s-1.4-1.8-1.9-2.9
				c-0.5-1.1-0.7-2.4-0.7-3.9c0-4,1.5-7.1,4.4-9.4S293,25,298.6,25c2.6,0,5,0.3,7,0.9s3.7,1.2,5,1.9l-3.7,8.1c-1-0.5-2.3-1-4-1.5
				c-1.6-0.5-3.2-0.7-4.8-0.7c-0.7,0-1.4,0-2,0.1c-0.7,0.1-1.3,0.2-1.8,0.5c-0.6,0.2-1,0.6-1.4,1c-0.3,0.4-0.5,1-0.5,1.8
				c0,1,0.4,1.7,1.1,2.2c0.8,0.5,1.8,1.1,3.2,1.8c1.9,0.9,3.5,1.8,4.8,2.6s2.3,1.6,3,2.5c0.8,0.9,1.3,1.9,1.6,3
				c0.3,1.1,0.5,2.4,0.5,4s-0.3,3.1-1,4.6s-1.7,2.9-3.1,4c-1.4,1.2-3.2,2.1-5.4,2.9s-4.8,1.1-7.9,1.1c-1.9,0-3.6-0.1-5.2-0.4
				c-1.5-0.2-2.9-0.5-4.1-0.9s-2.2-0.7-3-1.1c-0.8-0.4-1.4-0.7-1.9-1l3.7-8.3c0.8,0.5,2.1,1.1,3.9,1.8
				C284.5,56.5,286.7,56.8,289.1,56.8z"/>
		</g>
		<g>
			<path class="st1" d="M312.7,49.5c0-3.1,0.5-6.1,1.6-9.1c1.1-2.9,2.6-5.5,4.6-7.8s4.4-4.1,7.3-5.5s6-2.1,9.5-2.1
				c1.7,0,3.3,0.2,4.8,0.7s2.7,1.2,3.8,2.1c1.1,0.9,2,2.1,2.6,3.4c0.6,1.3,0.9,2.9,0.9,4.6c0,2.7-0.6,5-1.8,7
				c-1.2,1.9-2.9,3.5-5.1,4.6c-2.2,1.2-4.7,2.1-7.7,2.6s-6.2,0.8-9.7,0.8c0.3,2,1.1,3.5,2.2,4.4s3,1.3,5.5,1.3
				c1.6,0,3.1-0.1,4.8-0.4c1.6-0.3,3.1-0.7,4.5-1.2l0.8,8.6c-1.4,0.5-3.1,1-5.2,1.5c-2.1,0.4-4.4,0.7-6.9,0.7c-3,0-5.6-0.4-7.6-1.3
				c-2.1-0.9-3.8-2-5-3.5c-1.3-1.5-2.2-3.2-2.8-5.1C313,53.8,312.7,51.7,312.7,49.5z M334,33.7c-2.5,0-4.7,0.9-6.5,2.7
				c-1.9,1.8-3.1,4.1-3.7,7.1c3-0.1,5.5-0.4,7.3-0.8c1.9-0.4,3.3-0.9,4.3-1.5s1.7-1.2,2-1.9s0.5-1.4,0.5-2
				C337.9,34.9,336.6,33.7,334,33.7z"/>
		</g>
	</g>
	<g>
		<path class="st1" d="M39.3,78.5C17.6,78.5,0,60.9,0,39.3S17.6,0,39.3,0s39.3,17.6,39.3,39.3S60.9,78.5,39.3,78.5z M39.3,3.4
			C19.5,3.4,3.4,19.5,3.4,39.3s16.1,35.9,35.9,35.9s35.9-16.1,35.9-35.9S59.1,3.4,39.3,3.4z"/>
	</g>
	<path class="st0" d="M51.7,23.6L51.7,23.6c-0.1-1.4-0.5-2.5-1.2-3.5c-0.8-1.1-1.9-2-3.2-2.7s-2.8-1.1-4.4-1.3
		c-1.6-0.2-3.2-0.3-4.8-0.3c-1.9,0-3.8,0.1-5.6,0.2c-1.9,0.1-3.6,0.4-5.3,0.8l-9,37.5c1.6,0.4,3.5,0.6,5.6,0.8
		c1.4,0.1,2.7,0.2,4,0.2l0,0c0.2,0,0.3,0,0.4,0c0.4,0,0.8,0,1.1,0h0.1l0,0l0,0c0.1,0,0.2,0,0.3,0c2,0,3.8-0.1,5.4-0.3l0,0
		c3.8-0.5,7-1.6,9.3-3.2c2.2-1.5,3.7-3.5,4.5-5.9c0.4-1.3,0.6-2.7,0.6-4.3c0-1.1-0.2-2.1-0.6-3c-0.2-0.5-0.5-1-0.8-1.4
		c-0.9-1.3-2.2-2.2-3.8-2.9c2.6-1.1,4.5-2.5,5.6-4.2c0.1-0.2,0.2-0.4,0.3-0.6c0.9-1.6,1.3-3.2,1.3-5C51.8,24.2,51.8,23.9,51.7,23.6
		L51.7,23.6z M42.1,30.6c-0.3,0.2-0.7,0.4-1,0.5l0,0L39.4,38l0,0l0,0c0.6,0.2,1.1,0.5,1.5,0.8c0.2,0.2,0.4,0.4,0.6,0.6
		c0.7,0.8,1,1.8,1,2.9c0,1-0.1,1.8-0.4,2.6c-0.2,0.4-0.4,0.8-0.7,1.2c-0.7,1-1.6,1.7-2.7,2.2c-0.6,0.3-1.3,0.6-2,0.7l0,0
		c-0.2,0-0.3,0.1-0.5,0.1l0,0l0,0c-0.4,0.1-0.7,0.1-1.1,0.2c-1.3,0.2-2.6,0.3-3.9,0.3H31c-0.5,0-1,0-1.4,0s-0.8,0-1.2-0.1
		c-0.9-0.1-1.5-0.1-2.1-0.2l2.9-11.9h3.3l0,0l0.9-3.8l0.4-1.6l0,0h-3.3L33,21.8c0.5-0.1,1.2-0.1,2.1-0.2c0.9-0.1,1.7-0.1,2.6-0.1
		c2.2,0,3.9,0.3,5.2,0.9c0.4,0.2,0.8,0.5,1.1,0.8l0,0l0,0l0,0c0.6,0.7,0.9,1.6,0.9,2.7s-0.2,2-0.7,2.7c-0.1,0.1-0.1,0.2-0.2,0.3
		C43.4,29.6,42.8,30.1,42.1,30.6z"/>
	<path class="st1" d="M32.5,37.4l-2.9,12.2c0.4,0,0.9,0,1.4,0l0,0h0.2c1.2,0,2.5-0.1,3.9-0.3c0.4-0.1,0.8-0.1,1.1-0.2
		c0.2,0,0.3-0.1,0.5-0.1l1-4.2h6.4c2.2,0,3.9,0.4,5,1.1c0.1,0.1,0.3,0.2,0.4,0.3c1.1,0.9,1.6,2.1,1.6,3.5c0,1.5-0.4,2.8-1.1,3.7
		c-0.7,1-1.6,1.7-2.7,2.2c-1.1,0.5-2.3,0.9-3.6,1.1C42.3,56.9,41,57,39.8,57c-1,0-2,0-2.9-0.1s-1.5-0.1-2.1-0.2l0.4-1.7
		c-1.7,0.2-3.5,0.3-5.4,0.3c-0.1,0-0.2,0-0.3,0c-0.4,0-0.8,0-1.3,0l0,0l-1.5,6.4c1.6,0.4,3.5,0.6,5.6,0.8s4.1,0.3,6,0.3
		c6.4,0,11.4-1.2,14.8-3.6c3.4-2.4,5.1-5.8,5.1-10.1c0-1.7-0.4-3.1-1.3-4.4c-0.9-1.3-2.2-2.2-3.8-2.9c2.6-1.1,4.5-2.5,5.6-4.2
		c1.1-1.8,1.6-3.6,1.6-5.6c0-1.8-0.4-3.2-1.3-4.4c-0.8-1.1-1.9-2-3.2-2.7c-1.2-0.6-2.6-1-4.1-1.3c0,0.1,0,0.2,0,0.3
		c0,0.1,0,0.1,0,0.2v0.1v0.1c0,0.1,0,0.2,0,0.2c0,0.1,0,0.1,0,0.2l0,0l0,0v0.1c0,0.1,0,0.2,0,0.3c0,0.1,0,0.1,0,0.2v0.1
		c0,0.1,0,0.2,0,0.3c0,0.2,0,0.3-0.1,0.5c0,0.1,0,0.1,0,0.2s0,0.1,0,0.2s0,0.1,0,0.2s-0.1,0.2-0.1,0.3c0,0.1,0,0.1,0,0.2
		s0,0.1-0.1,0.2c0,0.1,0,0.1-0.1,0.2c0,0.1,0,0.1-0.1,0.2l0,0c0,0.1-0.1,0.1-0.1,0.2s0,0.1-0.1,0.2c0,0.1-0.1,0.1-0.1,0.2
		c0,0,0,0.1-0.1,0.1c0,0.1-0.1,0.1-0.1,0.2s-0.1,0.2-0.1,0.3c-0.1,0.1-0.1,0.2-0.2,0.3l0,0c0.3,0.1,0.6,0.2,0.8,0.3
		c1.3,0.6,1.9,1.8,1.9,3.5c0,1.1-0.2,2-0.7,2.7s-1.1,1.4-1.9,1.9c-0.4,0.3-0.9,0.5-1.4,0.7c-0.4,0.2-0.9,0.3-1.4,0.4
		c-1.1,0.2-2.2,0.3-3.4,0.3H39l0.4-1.5l0,0l0,0l1.7-6.8l0.5-1.9c0.5-0.1,1.2-0.1,2.1-0.2c0.1,0,0.2,0,0.2,0c0.1-0.1,0.1-0.2,0.2-0.3
		c0.5-0.7,0.7-1.7,0.7-2.7c0-1.1-0.3-2-0.9-2.7c-1,0-1.9,0.1-2.9,0.2c-1.9,0.1-3.6,0.4-5.3,0.8L33.8,32L32.5,37.4"/>
</g>
</svg>
